<svg xmlns="http://www.w3.org/2000/svg" xmlns:xlink="http://www.w3.org/1999/xlink" xmlns:lucid="lucid" width="1086" height="580"><g transform="translate(-291 -40)" lucid:page-tab-id="0_0"><path d="M0 0h1760v1360H0z" fill="#fff"/><path d="M332.67 86c0-3.3 2.68-6 6-6h988c3.3 0 6 2.7 6 6v488c0 3.3-2.7 6-6 6h-988c-3.32 0-6-2.7-6-6z" stroke="#d6242d" stroke-width="3" fill="#fff" fill-opacity="0"/><path d="M332.67 80h56v56h-56V80z" stroke="#fff" stroke-opacity="0" fill="#d6242d"/><path d="M373.55 121.22h-25c-4.13.05-7.57-3.1-7.9-7.2v-.64c-.15-3.4 1.97-6.38 5.25-7.36v-.66c.12-4.22 2.44-7.75 6.24-9.57 4.12-1.86 8.72-.96 11.8 2.3 1.08 1.1 1.84 2.2 2.44 3.6 1.2-1 2.73-1.32 4.25-.9 2.24.8 3.68 2.74 3.76 5.1 3.67.65 6.3 3.8 6.27 7.56 0 7.07-7.04 7.73-7.12 7.76zm-26.7-13.88c-2.83.6-4.75 3.14-4.6 6.04v.53c.3 3.33 3.1 5.84 6.4 5.76h24.98c3.04-.3 5.4-2.64 5.68-5.7.3-3.43-2.23-6.5-5.67-6.78-.44-.05-.72-.44-.64-.87.07-1.83-1-3.44-2.73-4.13-1.32-.37-2.65.13-3.45 1.24-.2.25-.44.38-.76.33-.28-.05-.48-.24-.6-.5-.6-1.6-1.4-2.85-2.6-4.04-2.68-2.8-6.6-3.6-10.12-2-3.24 1.6-5.2 4.63-5.32 8.24-.04.4-.04.74 0 1.14.04.4-.2.76-.6.84z" stroke="#fff" stroke-opacity="0" fill="#fff"/><use xlink:href="#a" transform="matrix(1,0,0,1,403.6675702231655,100) translate(0 12.622222222222224)"/><use xlink:href="#b" transform="matrix(1,0,0,1,403.6675702231655,100) translate(37.64753086419753 12.622222222222224)"/><path d="M952.67 220h102.66v102.67H952.67V220z" stroke="#fff" stroke-opacity="0" stroke-width="2" fill="#d86613"/><path d="M1035.5 305.56h-16.88c-.55 0-1-.28-1.2-.76l-23.9-49.9h-10.07c-.76 0-1.37-.6-1.37-1.36v-15.06c0-.75.6-1.37 1.37-1.37h21.1c.54 0 .98.28 1.2.76l23.77 49.9h5.97c.75 0 1.35.62 1.35 1.37v15.06c0 .74-.6 1.36-1.36 1.36zm-16-2.74h14.62V290.5h-5.48c-.55 0-1-.28-1.2-.76l-23.78-49.9h-18.84v12.33h9.6c.54 0 .97.27 1.25.75z" stroke="#fff" stroke-opacity="0" stroke-width="2" fill="#fff"/><path d="M990.27 305.56H972.5c-.5 0-.9-.25-1.2-.63-.26-.46-.26-.96-.05-1.38l18.63-38.9c.2-.5.7-.78 1.2-.78.56 0 1 .3 1.25.75l8.9 18.34c.22.38.22.8 0 1.2l-9.7 20.52c-.2.54-.68.88-1.26.88zm-15.6-2.76h14.76l9.05-19.13-7.36-15.3z" stroke="#fff" stroke-opacity="0" stroke-width="2" fill="#fff"/><use xlink:href="#c" transform="matrix(1,0,0,1,922.6675702231655,331.66666666666663) translate(21.2777777777778 15.999999999999998)"/><use xlink:href="#d" transform="matrix(1,0,0,1,922.6675702231655,331.66666666666663) translate(69.55555555555557 15.999999999999998)"/><path d="M651.67 129.33h-90.34c-3.3 0-6 2.7-6 6v101.42c0 3.3-2.68 6-6 6h-100.7" stroke="#5e5e5e" stroke-width="2" fill="none"/><path d="M652.67 130.33h-1.03v-2h1.03" fill="#5e5e5e"/><path d="M433.36 242.75l14.27-4.64v9.28z" stroke="#5e5e5e" stroke-width="2" fill="#5e5e5e"/><path d="M951.67 258.67H839.64c-3.3 0-6-2.7-6-6v-116c0-3.32-2.7-6-6-6h-94.52" stroke="#5e5e5e" stroke-width="2" fill="none"/><path d="M952.67 259.67h-1.03v-2h1.03" fill="#5e5e5e"/><path d="M717.85 130.67l14.27-4.64v9.27z" stroke="#5e5e5e" stroke-width="2" fill="#5e5e5e"/><path d="M652.67 100h92v92h-92v-92z" stroke="#fff" stroke-opacity="0" fill="#cc2264"/><path d="M720.73 115.33h-51.5c-.7 0-1.23.54-1.23 1.23v46.6c0 .7.54 1.24 1.24 1.24h25.15c-.22-.83-.33-1.57-.44-2.45h-23.53V117.8h49.12v24.52c.86.34 1.6.64 2.42 1.13v-26.9c0-.68-.54-1.22-1.24-1.22z" stroke="#fff" stroke-opacity="0" fill="#fff"/><path d="M715.84 126.36h-1.23v-4.9c0-.68-.54-1.22-1.2-1.22h-4.92c-.67 0-1.23.54-1.23 1.22v4.9h-1.22c-.68 0-1.23.57-1.23 1.24v4.9c0 .68.55 1.22 1.23 1.22h1.22v8.23c.85-.28 1.6-.45 2.46-.58v-7.65h2.46v7.36h.72c.62 0 1.13.05 1.73.1v-7.46h1.24c.68 0 1.23-.54 1.23-1.2v-4.92c0-.67-.55-1.24-1.23-1.24zm-6.13-3.67h2.46v3.66h-2.45zm4.9 8.57h-7.35v-2.45h7.36zM699.9 139.86h-1.23v-18.4c0-.67-.55-1.22-1.23-1.22H692.47c-.67.04-1.2.63-1.16 1.3v18.4h-1.22c-.67 0-1.23.55-1.23 1.22v4.9c0 .68.56 1.23 1.23 1.23h1.23v11.04c0 .66.56 1.2 1.23 1.2h1.4c.03-.85.1-1.6.24-2.42h-.4v-9.83h2.44V151c.73-1.3 1.46-2.36 2.47-3.46v-.35h.24c.72-.78 1.4-1.37 2.22-2.03v-4.1c0-.66-.55-1.2-1.23-1.2zm-6.14-17.18h2.45v17.18h-2.44zm4.9 22.1h-7.35v-2.45h7.37zM683.95 130.05h-1.23v-8.6c0-.66-.55-1.2-1.23-1.2h-4.9c-.7 0-1.24.54-1.24 1.2v8.6h-1.23c-.67 0-1.22.55-1.22 1.22v4.9c0 .7.56 1.26 1.23 1.26h1.23v20.85c0 .66.55 1.2 1.23 1.2h4.9c.67 0 1.22-.54 1.22-1.2v-20.85h1.23c.67 0 1.22-.55 1.22-1.25v-4.9c0-.68-.55-1.23-1.22-1.23zm-6.14-7.34h2.47v7.35h-2.46zm2.47 34.36h-2.46v-19.63h2.47zm2.45-22.1h-7.36v-2.43h7.36zM728.95 156.18c-.26-.26-.56-.36-.93-.33l-1.52.07c-.3-.93-.6-1.7-1.06-2.56l1.16-1.02c.26-.24.4-.53.4-.87 0-.36-.1-.66-.37-.92l-4.3-4.32c-.24-.23-.54-.36-.9-.36-.37.03-.67.16-.9.43l-1.03 1.16c-.86-.46-1.63-.8-2.56-1.06l.1-1.56c.04-.33-.1-.66-.33-.93-.22-.22-.52-.35-.88-.35h-6.21c-.68.03-1.18.63-1.15 1.3l.1 1.55c-.93.26-1.7.6-2.55 1.06l-1.06-1.16c-.23-.27-.53-.4-.86-.43-.37 0-.67.13-.9.36l-4.28 4.32c-.23.26-.36.56-.36.92.03.34.16.63.43.87l1.16 1.02c-.47.87-.8 1.63-1.06 2.56l-1.56-.07c-.32-.03-.66.07-.92.33-.23.24-.37.53-.37.9v6.1c0 .37.15.67.38.9.26.26.6.36.93.33l1.53-.06c.3.93.63 1.7 1.1 2.56l-1.16 1.03c-.27.23-.4.53-.43.86 0 .35.13.65.36.92l4.3 4.3c.28.24.58.37.9.37.37-.04.67-.17.9-.44l1.03-1.16c.86.47 1.63.8 2.56 1.1l-.08 1.52c0 .04-.03.04-.03.07.02.7.55 1.22 1.25 1.22h6.1c.37 0 .66-.14.9-.37.26-.26.36-.6.33-.93l-.07-1.52c.94-.3 1.7-.63 2.57-1.1l1.02 1.16c.23.27.52.4.86.43.36 0 .66-.14.92-.37l4.32-4.3c.23-.28.36-.58.33-.94 0-.34-.13-.64-.4-.87l-1.16-1.03c.46-.86.8-1.63 1.06-2.56l1.56.07c.32.04.65-.06.92-.32.23-.23.36-.53.36-.9v-6.1c0-.37-.16-.66-.43-.9zm-2.05 5.68l-1.23-.07c-.6-.04-1.1.35-1.23.95-.33 1.36-.8 2.5-1.56 3.68-.3.5-.23 1.16.23 1.56l.94.82-2.45 2.46-.84-.93c-.4-.47-1.03-.57-1.56-.23-1.2.76-2.32 1.22-3.68 1.55-.57.14-.96.63-.93 1.23l.02 1.23h-3.6l.1-1.23c0-.6-.4-1.1-.97-1.23-1.4-.33-2.5-.8-3.7-1.55-.52-.34-1.15-.24-1.58.23l-.8.93-2.45-2.46.93-.83c.43-.4.53-1.07.2-1.57-.73-1.2-1.2-2.32-1.53-3.68-.13-.6-.63-1-1.22-.96l-1.23.06v-3.52l1.23.1c.6 0 1.1-.4 1.22-.96.33-1.4.8-2.5 1.53-3.68.33-.53.23-1.17-.2-1.6l-.93-.83 2.46-2.45.82.93c.4.46 1.07.56 1.56.23 1.2-.73 2.33-1.2 3.7-1.52.58-.14.95-.64.95-1.23l-.06-1.23h3.48l-.06 1.23c0 .6.36 1.1.96 1.23 1.36.3 2.5.76 3.68 1.52.5.33 1.16.23 1.56-.23l.83-.93 2.44 2.45-.93.83c-.45.4-.52 1.07-.22 1.56.77 1.2 1.23 2.32 1.56 3.68.13.6.63 1 1.23.97l1.23-.06z" stroke="#fff" stroke-opacity="0" fill="#fff"/><path d="M722 154.94l-1.6 3.78c-.2.46-.62.75-1.12.75h-.13l-4.1-.43.27-2.45 1.86.18c-.85-1.16-1.98-1.86-3.38-2.13-3-.56-5.86 1.4-6.43 4.37l-2.46-.5c.88-4.28 5.1-7.06 9.4-6.2 1.97.42 3.53 1.4 4.76 3.03l.67-1.38zM720.6 161.73c-.86 4.3-5.06 7.08-9.36 6.2-1.83-.37-3.3-1.23-4.5-2.67l-.27 1.03-2.38-.65 1.06-4c.15-.6.75-1 1.37-.9l3.92.6-.36 2.45-1.58-.24c.84 1.08 1.9 1.73 3.24 2 2.97.6 5.85-1.33 6.44-4.3z" stroke="#fff" stroke-opacity="0" fill="#fff"/><use xlink:href="#c" transform="matrix(1,0,0,1,622.6675702231655,201) translate(0.5833333333333428 15.999999999999998)"/><use xlink:href="#e" transform="matrix(1,0,0,1,622.6675702231655,201) translate(48.86111111111111 15.999999999999998)"/><use xlink:href="#f" transform="matrix(1,0,0,1,622.6675702231655,201) translate(111.52777777777777 15.999999999999998)"/><path d="M404.68 520c-10.84 0-28.1-2.46-28.32-9.1l-7.72-57.2c-.15-.97.43-1.86 1.37-2.06.95-.14 1.9.47 2.1 1.43.8 3.28 13.65 7.86 32.65 7.86s31.85-4.58 32.65-7.86c.2-.96 1.15-1.57 2.1-1.43.93.2 1.5 1.1 1.36 2.05L433 510.9c0 2.26-2.1 4.18-6 5.75-1.8.68-3.4 1.16-5.28 1.57-5.92 1.3-10.98 1.78-17.04 1.78zm-31.93-61.66l6.94 52.3v.2c0 2.05 9.74 5.8 24.9 5.8 5.78.08 10.62-.47 16.26-1.63 1.73-.4 3.17-.88 4.84-1.56 3.1-1.23 3.82-2.33 3.82-2.67v-.2l7-52.23c-6.56 3.9-19.78 6-31.9 6-12.15 0-25.3-2.1-31.87-6z" stroke="#fff" stroke-opacity="0" fill="#d6242d"/><path d="M404.7 464.32c-16.16 0-34.26-3.65-36-10.4V452.98v-.23c0-7.52 19.05-12.77 36.14-12.77 17.08 0 35.97 5.25 35.97 12.77v.22l-.06.7v.2c-1.87 6.77-19.97 10.42-36.05 10.42zm-32.67-11.2c1.08 3.3 13.84 7.8 32.66 7.8 18.8 0 31.57-4.5 32.65-7.8v-.45c-.2-3.3-13.62-9.26-32.66-9.26s-32.53 5.96-32.74 9.27zM440.86 487.86c-8.07 0-25.83-8-36.92-13.46l1.5-3.06c15.3 7.53 33.35 14.5 36.46 13.18-.25-.48-1.4-2.02-6.83-4.97l-.25-.17 1.7-2.96.25.17c5.46 2.98 8.07 5.3 8.52 7.5.16.93-.1 1.83-.7 2.57-1.04.95-2.33 1.36-3.74 1.2z" stroke="#fff" stroke-opacity="0" fill="#d6242d"/><path d="M404.7 476.6c-2.05 0-3.7-1.66-3.7-3.7s1.65-3.7 3.7-3.7c2.03 0 3.68 1.66 3.68 3.7s-1.65 3.7-3.7 3.7zm0-4h-.02c-.17 0-.3.14-.3.3 0 .33.6.33.6 0v-.04c0-.16-.13-.28-.3-.28z" stroke="#fff" stroke-opacity="0" fill="#d6242d"/><use xlink:href="#g" transform="matrix(1,0,0,1,338.635140446331,529) translate(8.373456790123477 13.61111111111111)"/><use xlink:href="#h" transform="matrix(1,0,0,1,338.635140446331,529) translate(82.08950617283949 13.61111111111111)"/><g stroke="#fff" stroke-opacity="0" fill="#d6242d"><path d="M389.2 485.64l-10.5 1.5c-.5.08-.94-.27-1-.74l-1.96-13.57c-.06-.47.27-.93.76-1l7.8-1.12 4.07 3.05 1.56 10.9c.07.47-.25.92-.74 1zm-12.6-13.15h-.02c-.12 0-.2.1-.2.24l1.96 13.57c.02.13.13.2.26.2l10.5-1.52c.13-.02.2-.12.2-.24l-1.53-10.62-3.62-2.7z"/><path d="M387 483.77l-6.7.97c-.2.02-.36-.1-.38-.28l-.8-5.5c-.02-.18.1-.35.3-.38l6.7-.96c.17-.02.34.1.36.28l.8 5.5c.02.18-.1.35-.28.37zm-6.47.27l6.04-.87-.7-4.85-6.04.87z"/><path d="M384.95 478.12l-.65.1-.2-1.46c-.07-.44-.27-.78-.6-1.05-.34-.26-.72-.36-1.13-.3-.42.06-.75.26-1 .6-.26.35-.35.74-.3 1.17l.22 1.47-.66.1-.2-1.48c-.1-.6.03-1.15.4-1.64.35-.5.83-.8 1.43-.88.6-.08 1.14.07 1.62.44.47.38.75.87.83 1.48zM387.78 474.18l.65-.1.6 4.2-.65.1-.6-4.2z"/><path d="M388.12 474.26l-3.36.48c-.17.03-.34-.1-.37-.28l-.5-3.36.66-.1.44 3.04 3.03-.43zM383.24 481.5c-.57.1-1.1-.3-1.2-.88-.08-.58.33-1.12.9-1.2.58-.08 1.1.32 1.2.9.08.57-.32 1.1-.9 1.2zm-.2-1.43c-.1.02-.2.07-.26.16-.07.08-.1.18-.08.3.03.2.23.36.45.33.22-.03.37-.23.34-.45h-.02c-.03-.2-.23-.36-.44-.33z"/><path d="M382.87 481.23l.65-.1.22 1.53-.65.1-.23-1.53z"/></g><g stroke="#fff" stroke-opacity="0" fill="#d6242d"><path d="M411.96 494.4l-10.3-2.5c-.48-.12-.77-.6-.66-1.07l3.24-13.33c.1-.46.6-.76 1.07-.64l7.68 1.86 2.64 4.33-2.6 10.7c-.1.46-.58.76-1.06.64zm-6.8-16.9h-.02c-.12-.03-.24.04-.27.16l-3.23 13.32c-.03.12.05.24.18.27l10.3 2.5c.13.03.25-.04.28-.16l2.53-10.43-2.36-3.87z"/><path d="M410.62 491.84l-6.6-1.6c-.16-.03-.27-.2-.23-.4l1.3-5.4c.05-.16.23-.27.4-.23l6.58 1.6c.18.05.3.23.24.4l-1.3 5.4c-.05.18-.23.3-.4.24zm-6.1-2.15l5.93 1.43 1.15-4.76-5.93-1.44z"/><path d="M410.82 485.84l-.64-.16.35-1.43c.1-.42.05-.82-.17-1.2-.2-.37-.52-.6-.93-.7-.4-.1-.8-.04-1.15.2-.37.22-.6.54-.7.96l-.35 1.46-.64-.15.34-1.44c.14-.6.47-1.06 1-1.38.5-.32 1.06-.42 1.65-.27.58.15 1.02.5 1.33 1 .3.54.38 1.1.23 1.7zM414.9 483.23l.65.16-1 4.1-.64-.15 1-4.12z"/><path d="M415.2 483.43l-3.3-.8c-.17-.05-.28-.23-.24-.4l.8-3.3.64.16-.72 2.96 2.97.73zM407.97 488.35c-.56-.14-.9-.7-.77-1.28.13-.56.7-.9 1.27-.77.57.13.92.7.78 1.27-.14.57-.7.92-1.28.78zm.35-1.4c-.1-.04-.2-.03-.3.03-.1.06-.16.14-.18.25-.05.2.08.43.3.48.2.06.42-.07.47-.28.06-.22-.07-.43-.28-.48z"/><path d="M407.73 487.95l.64.15-.36 1.5-.63-.15.36-1.5z"/></g><g stroke="#fff" stroke-opacity="0" fill="#d6242d"><path d="M399.93 509.93l-10.38 2.16c-.48.1-.95-.22-1.05-.7l-2.8-13.4c-.1-.48.2-.96.7-1.06l7.72-1.6 4.25 2.78 2.24 10.77c.1.46-.2.93-.67 1.03zm-13.4-12.34c-.13.02-.2.13-.18.25l2.8 13.42c.02.13.13.2.26.17l10.4-2.16c.13-.03.2-.14.18-.26l-2.2-10.5-3.78-2.48z"/><path d="M397.62 508.2l-6.63 1.4c-.2.02-.36-.1-.4-.27l-1.13-5.44c-.04-.2.08-.36.25-.4l6.63-1.38c.18-.04.36.08.4.26l1.12 5.44c.04.17-.07.35-.25.38zm-6.44.67l5.98-1.24-1-4.8-5.98 1.25z"/><path d="M395.23 502.7l-.65.12-.3-1.43c-.1-.45-.3-.78-.66-1.03-.35-.24-.73-.32-1.14-.24-.42.1-.74.3-.96.67-.24.37-.3.76-.22 1.18l.3 1.46-.64.13-.3-1.45c-.13-.6-.03-1.16.3-1.67.33-.5.8-.84 1.38-.96.6-.13 1.14-.02 1.64.32.5.35.82.82.94 1.42zM397.8 498.58l.65-.13.86 4.15-.63.14-.87-4.16z"/><path d="M398.15 498.64l-3.32.7c-.18.02-.36-.1-.4-.27l-.68-3.32.64-.13.62 3 3-.63zM393.73 506.18c-.57.12-1.13-.25-1.25-.82-.12-.57.25-1.13.82-1.25.57-.1 1.13.26 1.25.83.12.57-.25 1.13-.82 1.25zm-.3-1.42c-.1.02-.18.08-.24.17-.08.1-.1.2-.07.3.04.2.25.35.47.3.22-.04.35-.25.3-.46-.04-.22-.25-.36-.46-.3z"/><path d="M393.34 505.92l.65-.13.3 1.5-.64.13-.32-1.5z"/></g><g stroke="#fff" stroke-opacity="0" fill="#d6242d"><path d="M424.18 509.65l-10.13 3.12c-.47.15-.97-.12-1.1-.58l-4.05-13.1c-.15-.46.1-.96.6-1.1l7.53-2.34 4.48 2.38 3.26 10.5c.14.46-.1.96-.58 1.1zm-14.5-11.02c-.13.04-.2.15-.16.27l4.04 13.1c.04.12.16.18.3.14l10.12-3.13c.13-.03.2-.15.16-.26l-3.16-10.25-4-2.13z"/><path d="M421.72 508.15l-6.48 2c-.17.05-.35-.05-.4-.22l-1.64-5.3c-.06-.2.04-.37.2-.42l6.5-2c.16-.04.34.05.4.23l1.63 5.3c.06.18-.04.36-.2.42zm-6.35 1.27l5.83-1.8-1.44-4.68-5.84 1.8z"/><path d="M418.82 502.88l-.63.2-.45-1.4c-.12-.43-.38-.74-.75-.96-.37-.2-.76-.25-1.16-.12-.4.12-.7.37-.9.75-.2.38-.22.78-.1 1.2l.44 1.42-.63.2-.44-1.43c-.17-.58-.12-1.15.16-1.7.27-.53.7-.9 1.28-1.07.58-.18 1.14-.12 1.67.17.54.3.9.74 1.07 1.33zM421 498.55l.62-.2 1.25 4.06-.63.2-1.25-4.05z"/><path d="M421.34 498.57l-3.24 1c-.17.05-.36-.04-.4-.2l-1-3.26.62-.18.9 2.92 2.93-.9zM417.66 506.5c-.56.17-1.15-.14-1.32-.7-.18-.56.14-1.15.7-1.32.55-.17 1.14.14 1.3.7.2.56-.13 1.15-.68 1.32zm-.43-1.4c-.1.04-.18.1-.23.2-.06.1-.07.2-.03.3.06.22.28.33.5.27.2-.07.32-.3.25-.5-.06-.2-.28-.33-.5-.26z"/><path d="M417.24 506.28l.63-.2.46 1.48-.63.2-.46-1.48z"/></g><path d="M623.62 315.1v-1.4c.06-18.67 15.2-33.74 33.8-33.7 17.76.04 32.23 13.66 33.5 31.4l-3.42.2c-.88-16.26-14.34-28.83-30.56-28.65-16.76.2-30.16 13.97-29.96 30.76v1.27z" stroke="#fff" stroke-opacity="0" fill="#d6242d"/><path d="M624.96 316.14v-2.23c.06-9.08 3.93-16.84 11.12-22.3l.23-.13c5-2.95 9.95-4.28 15.8-4.28 13.53-.18 25.04 8.24 29.03 21.2l-3.26.93c-3.54-11.52-13.82-18.98-25.84-18.78-5.1 0-9.54 1.16-13.98 3.76-6.35 4.84-9.72 11.62-9.72 19.6v2.15zM627.2 325.7l-.45-3.4c3.16-.3 5.8-1.18 8.5-2.86 5.67-4.1 17.54-5.55 24-5.12 4.4.67 8.04 1.8 12 3.8 1.77.87 3.36 1.48 5.2 2.02 3.03.1 5.54-.04 8.57-.48h.26c1-.1 1.98-.2 2.97-.27h.92v-6.16h-.33l-3.1.28-2.3.2-.26-3.4 2.3-.2 2.97-.28.8-.1c1.64-.25 3.15.86 3.35 2.47.07.17.07.32.07.5v6.96c0 1.57-1.25 2.84-2.77 2.93h-.26l-1.06.07-2.9.27h-.26c-3.3.48-6.13.63-9.43.47-2.25-.52-4.1-1.18-6.14-2.2-3.63-1.76-6.92-2.78-10.88-3.4-5.8-.44-16.87.87-21.75 4.44-3.16 2-6.26 3.1-10.02 3.47zm62.44-6.53z" stroke="#fff" stroke-opacity="0" fill="#d6242d"/><path d="M673.7 313.68c-.97-.3-2.05-.7-3.26-1.18-4.34-1.97-8.42-2.84-13.16-2.8-8.28.48-12.32.95-15.34 1.83l-.95-3.28c3.4-.95 7.53-1.47 16.08-1.96 5.28-.08 9.76.85 14.57 3 1.14.47 2.2.84 3 1.08zM622.7 326c-3.65 0-7.24-.66-9.1-2.52-.73-.7-1.05-1.6-.9-2.6.42-2.17 3.2-3.4 7.05-5.12 1.7-.7 3.3-1.44 4.75-2.24l1.7 3c-1.6.88-3.4 1.7-5.02 2.38-1.75.7-3.18 1.4-4.8 2.38 1.53 1.1 5.4 1.7 10.44 1l.46 3.43c-1.6.2-2.97.3-4.58.3z" stroke="#fff" stroke-opacity="0" fill="#d6242d"/><path d="M682.18 316.72h-6.8c-1.6 0-2.9-1.3-2.9-2.92v-3.74c0-1.6 1.3-2.9 2.9-2.9h6.8c1.6 0 2.9 1.3 2.9 2.9v3.74c0 1.6-1.3 2.9-2.9 2.92zm-6.3-3.42h5.8v-2.66h-5.8zM638.17 321.36c-5.34-.04-9.88-1.7-14-5.12l2.28-2.48c3.5 2.86 7.38 4.22 11.9 4.2z" stroke="#fff" stroke-opacity="0" fill="#d6242d"/><path d="M658.43 280h-1.04c-18.57-.05-33.7 15.04-33.77 33.67v.32c-1.2.6-2.48 1.2-3.84 1.74-3.93 1.75-6.65 3-7.13 5.15-.08.96.24 1.88.96 2.57 1.84 1.9 5.44 2.53 9.04 2.53 1.68 0 3.04-.1 4.64-.28v-.04c3.7-.37 6.8-1.43 9.93-3.45 4.88-3.54 15.92-4.88 21.76-4.42 3.9.6 7.27 1.62 10.87 3.42 2.08 1 3.92 1.65 6.08 2.2 3.36.14 6.16 0 9.44-.46h.3l2.9-.27 1.03-.1h.24c1.6-.1 2.8-1.38 2.8-2.95v-6.94c0-1.28-.72-2.34-1.92-2.8-1.92-16.8-15.52-29.35-32.32-29.9zm-.72 3c15.37.22 27.93 11.63 29.7 26.95l-1.93.18-2.32.18.32 3.42 2.32-.2 3.03-.3h.32v6.16h-.96c-.9.1-1.93.18-2.9.27h-.3c-2.97.46-5.53.6-8.5.5-1.9-.54-3.5-1.14-5.27-2.02-3.92-1.97-7.6-3.12-12-3.8-5.52-.38-15.2.68-21.36 3.62-4.08-.1-7.6-1.3-10.88-3.77v-.5c-.17-16.75 13.2-30.5 29.9-30.74.33 0 .57 0 .8.05zm-32.47 34.03c2.4 1.8 4.8 2.9 7.68 3.63-2.07.92-3.9 1.43-6.15 1.6v.06c-5.04.7-8.8.05-10.4-1 1.68-1.02 3.12-1.7 4.8-2.4 1.36-.56 2.72-1.2 4.08-1.9z" stroke="#fff" stroke-opacity="0" fill="#fff" fill-opacity="0"/><use xlink:href="#i" transform="matrix(1,0,0,1,582.6675702231655,335) translate(50.611111111111114 15.999999999999998)"/><path d="M407 309.7v11.8" stroke="#5e5e5e" stroke-width="2" fill="none"/><path d="M408 309.72h-2v-1.02h2" fill="#5e5e5e"/><path d="M407 336.76l-4.65-14.26h9.27z" stroke="#5e5e5e" stroke-width="2" fill="#5e5e5e"/><path d="M407 387.32v34.33" stroke="#5e5e5e" stroke-width="2" fill="none"/><path d="M408 387.34h-2v-1.02h2" fill="#5e5e5e"/><path d="M407 436.9l-4.65-14.25h9.27z" stroke="#5e5e5e" stroke-width="2" fill="#5e5e5e"/><path d="M361.3 217.33h91.37v91.37H361.3v-91.37z" stroke="#fff" stroke-opacity="0" stroke-width="2" fill="#3f8624"/><path d="M436.14 266.1c-.35-1.88-2.5-3.23-4.03-4.2-.46-.3-1.74-.8-1.86-1.22 0-.3 0-.6.12-.92l1.22-8.72 1.05-7.75c.3-2.32-.8-3.9-2.74-5.25-3.92-2.75-9.06-3.84-13.67-4.58-6.07-.97-11.38-1.16-17.5-.55-5.56.37-10.17 1.47-15.3 3.66-2.57 1.22-6.02 3.12-5.55 6.4 1.17 9.9 2.63 19.77 3.97 29.65.58 4.52 1.23 9.03 1.8 13.54.24 1.9 1.3 3.36 3.04 4.1 3.73 2 8.4 2.6 12.66 2.98 5.9.55 10.92.37 16.75-.73 3.52-.6 10.05-1.7 10.64-6.1.7-5.43 1.46-10.86 2.16-16.3l.3-1.63c1.98.47 7.64 1.5 6.94-2.4zM405.2 235c7.35 0 15.7.85 22.24 4.45 1.05.55 3.38 1.77 2.68 3.3-.7 1.46-2.9 2.2-4.26 2.74-1.98.72-3.8 1.2-5.9 1.64-9.1 1.83-17.15 2-26.38.55-4.14-.44-7.6-1.48-11.32-3.3-.88-.56-2.34-1.4-1.93-2.63.3-.67.76-1.16 1.4-1.53 2.86-1.83 5.5-2.92 8.82-3.53 5.02-1.2 9.45-1.76 14.65-1.7zm19.15 51.36c-.24 1.4-2.57 2.13-3.68 2.5-2.45.85-4.6 1.34-7.18 1.64-5.67.74-10.58.74-16.3 0-3.56-.3-6.54-1.1-9.75-2.68-.87-.37-1.4-1.16-1.46-2.07-1.23-9.7-2.57-19.34-3.92-28.98l-1.4-10.5c2.92 1.6 5.6 2.57 8.87 3.12 3.57.73 6.54 1.1 10.16 1.34 7.02.48 13.03.18 19.98-1.1 3.67-.55 6.7-1.6 9.98-3.36l-2.57 19.1c-6.55-2.14-11.92-4.28-18.05-7.26-.3-.13-.52-.25-.76-.37-.36-.24-.24-.12-.42-.5-.3-.72-.35-1.2-1-1.82-.57-.42-1.2-.6-1.9-.55-1.53.06-2.7 1.4-2.58 2.93.1 1.47 1.46 2.63 2.97 2.5.4-.05.76-.17 1.23-.35.47-.13.47-.13.93.12 6.25 3.05 11.68 5.3 18.27 7.5.94.3.94 0 .94.8-.06.6-.12 1.15-.23 1.76l-.75 5.8zm-18.8-28.85c0 .37-.47.3-.58.13-.18-.25.58-.55.58-.12zm24 8.55l.34-2.7c1.22.74 3.26 1.78 3.84 3.12-1.22.5-3.1-.12-4.2-.42z" stroke="#fff" stroke-opacity="0" stroke-width="2" fill="#fff"/><path d="M411.43 386.32h-8.9c-.27 0-.5-.1-.7-.33-.17-.2-.26-.43-.26-.75l.18-2.82c-1.76-.47-3.15-1.07-4.72-2l-1.86 2.18c-.18.24-.46.33-.74.33-.27 0-.5-.1-.7-.27l-6.24-6.2c-.2-.2-.3-.43-.3-.75 0-.27.1-.5.33-.7l2.13-1.88c-.88-1.58-1.43-3-1.9-4.73l-2.87.18c-.56.04-1.03-.37-1.07-.93V358.7c0-.27.1-.5.32-.68.2-.2.42-.28.74-.28l2.86.18c.47-1.7 1.07-3.15 2-4.67l-2.23-1.9c-.23-.2-.32-.47-.32-.74s.1-.55.3-.73l6.2-6.2c.18-.2.4-.3.73-.3.28 0 .5.1.7.34l1.9 2.14c1.57-.88 3-1.44 4.72-1.9l-.18-2.87c0-.33.1-.56.27-.75.2-.23.42-.32.7-.32h8.9c.27 0 .5.1.7.32.17.2.26.42.26.75l-.18 2.87c1.7.5 3.1 1.06 4.68 2l1.94-2.2c.37-.36 1.02-.4 1.4-.03l.04.05 6.2 6.12c.2.18.28.4.28.74 0 .28-.1.52-.32.7l-2.13 1.9c.9 1.57 1.5 2.96 1.95 4.68l2.87-.14c.28-.05.5.05.75.28.18.18.27.4.27.7v8.88c0 .28-.1.5-.32.7-.2.18-.42.28-.74.28l-2.87-.2c-.46 1.73-1.06 3.16-2 4.7l2.15 1.9c.23.17.32.45.37.73 0 .3-.1.52-.33.7l-6.12 6.26c-.2.18-.42.27-.74.27-.28 0-.5-.1-.7-.32l-1.9-2.12c-1.53.88-2.96 1.48-4.67 1.95l.13 2.82c0 .32-.1.56-.27.74-.2.22-.42.32-.7.32zm-7.78-2h6.72l-.14-2.6c0-.5.32-.87.78-1 2.1-.47 3.8-1.17 5.62-2.32.42-.24.93-.2 1.25.18l1.76 2 4.77-4.78-2-1.76c-.36-.32-.4-.83-.18-1.25 1.16-1.86 1.86-3.53 2.32-5.6.1-.48.5-.8.97-.8l2.65.14v-6.76l-2.64.18c-.45 0-.87-.32-.96-.8-.46-2.07-1.16-3.78-2.32-5.6-.27-.4-.18-.92.2-1.24l1.93-1.76-4.77-4.77-1.76 1.98c-.32.37-.83.42-1.25.14-1.8-1.1-3.52-1.8-5.6-2.32-.46-.1-.8-.5-.8-.97l.2-2.64h-6.77l.2 2.63c0 .46-.33.88-.8.97-2.08.47-3.8 1.16-5.6 2.32-.42.28-.93.2-1.25-.2l-1.76-1.93-4.78 4.76 2 1.76c.36.32.4.83.13 1.25-1.1 1.8-1.8 3.52-2.32 5.6-.1.47-.5.8-.97.8l-2.64-.2v6.77l2.6-.2c.5 0 .87.34 1 .8.47 2.1 1.17 3.8 2.33 5.6.23.42.18.93-.2 1.26l-1.98 1.76 4.77 4.77 1.76-2c.33-.37.83-.4 1.25-.13 1.8 1.1 3.52 1.8 5.6 2.3.47.1.8.52.8.98z" stroke="#fff" stroke-opacity="0" fill="#d6242d"/><path d="M407.05 374.77c-5.44.02-10-3.58-11.3-8.87l2-.45c.88 3.73 3.65 6.42 7.4 7.2 5.24 1.06 10.32-2.3 11.38-7.52l1.98.4c-1.15 5.48-5.83 9.28-11.45 9.24zM397.6 361.23l-1.95-.4c1.3-6.3 7.44-10.33 13.72-9.03 4.33.9 7.57 3.87 8.8 8.1l-1.82.56c-1.03-3.56-3.73-6.04-7.36-6.78-5.24-1.05-10.33 2.33-11.4 7.55z" stroke="#fff" stroke-opacity="0" fill="#d6242d"/><path d="M413.12 358.84l.38-.72 3.55 1.8 1.53-3.68.75.32-1.87 4.47-4.34-2.2zM395.98 372.57l-1.97-.4 1.43-6.78c.1-.54.62-.87 1.15-.77l7.08 1.12-.3 1.97-6.16-1z" stroke="#fff" stroke-opacity="0" fill="#d6242d"/><path d="M417.66 362c-.14 0-.26 0-.4-.06l-6.54-2.96.8-1.8 5.7 2.53 2.7-5.32 1.77.9-3.15 6.2c-.17.34-.5.54-.9.53z" stroke="#fff" stroke-opacity="0" fill="#d6242d"/><path d="M1056.33 271.33h128.25" stroke="#5e5e5e" stroke-width="2" fill="none"/><path d="M1056.36 272.33h-1.03v-2h1.03" fill="#5e5e5e"/><path d="M1199.85 271.33l-14.27 4.64v-9.27z" stroke="#5e5e5e" stroke-width="2" fill="#fff"/><path d="M1203.08 280.1h109.58v18.73h-109.58zm0-21.52h109.58v17h-109.58zm109.58-9.03v3.33h-96.2v-3.33l55.33-18.18zm-89.96-13.46v3.32c0-2.36-.44-4.58-1.32-6.73v-3.27c.88 2.08 1.32 4.37 1.32 6.66" fill="#876929"/><path d="M1241.62 238.77l-18.95.62c0-2.3-.46-4.57-1.33-6.7v-3.27c.4 1.02 17.46 4.32 17.46 4.32l2.82 5.02z" fill="#876929"/><path d="M1312.66 229.43v20.1h-96.2c5.9-5.04 7.88-12.9 4.92-20.1h91.28zm-109.58 26.1h109.58v16.7h-109.58zm0 23.2h109.58v16.77h-109.58z" fill="#d9a741"/><path d="M1251.57 232.35v2.2h-4.9v3.2h4.65v2.26h-4.64v3.68h5.1v2.25h-7.88v-13.58zm1.5 3.36h2.53v1.06c.6-.93 1.58-1.42 2.67-1.33 1.1-.1 2.14.58 2.42 1.65.43-1.1 1.48-1.76 2.65-1.63 1.78 0 2.6 1.08 2.6 3.07V246h-2.68v-7.2c0-.86-.32-1.34-1.05-1.34-.76 0-1.33.57-1.33 1.76v6.68h-2.7v-7.1c0-.86-.3-1.34-1.06-1.34-.73 0-1.34.57-1.34 1.76v6.68h-2.66l-.08-10.2zm14.56 3.15v-.28c0-2.37 1.62-3.17 3.6-3.17 3.14 0 3.75 1.34 3.75 3.15v5.35c-.04.67.08 1.35.32 1.98h-2.58c-.16-.34-.24-.7-.32-1.07-.53 1-1.58 1.52-2.67 1.34-1.86 0-2.5-1.57-2.5-2.94 0-1.93.8-2.68 2.62-3.2l1.5-.42c.76-.2 1.05-.5 1.05-1.2v-.3c-.1-.6-.65-1.04-1.22-.96-.12 0-.16 0-.24.03-.64.15-1.05.78-.9 1.42v.28h-2.4zm4.85 2c-.37.24-.77.4-1.17.52-1.04.23-1.5.73-1.5 1.65 0 .93.3 1.44 1.02 1.44h.08c.9 0 1.58-.7 1.58-1.58v-2.04zm4.52-8.65h2.66v2.25H1277v-2.25zm0 3.5h2.66v10.27H1277V235.7zm4.6-3.35h2.66v13.62h-2.66z" fill="#fff"/><path d="M1217.38 239.5c0 6.83-5.54 12.36-12.35 12.36-6.82 0-12.35-5.53-12.35-12.36v-3.3l12.35-9.05 12.35 9.04v3.3z" fill="#8d090a"/><path d="M1217.36 236.2c0 6.8-5.53 12.35-12.34 12.35-6.82 0-12.35-5.54-12.35-12.36 0-6.83 5.53-12.37 12.35-12.37 6.8 0 12.34 5.54 12.34 12.36z" fill="#ea2227"/><path d="M1206.65 259.05h102.45v9.68h-102.45zm0 23.24h102.45v9.67h-102.45z" fill="#fff"/><use xlink:href="#j" transform="matrix(1,0,0,1,1192.6675702231655,298.8333333333333) translate(36.72222222222223 15.999999999999998)"/><use xlink:href="#k" transform="matrix(1,0,0,1,1192.6675702231655,298.8333333333333) translate(11.222222222222221 39.99999999999999)"/><path d="M757.12 340h-40.9c-1.97 0-3.55-1.62-3.55-3.6v-52.8c0-1.98 1.58-3.6 3.55-3.6h40.9c1.96 0 3.55 1.62 3.55 3.6v52.8c0 1.98-1.6 3.6-3.55 3.6zm-40.9-57.42c-.58 0-1 .42-1 1.02v52.8c0 .6.47 1.02 1 1.02h40.9c.57 0 1-.42 1-1.02v-52.8c0-.6-.48-1.02-1-1.02z" stroke="#fff" stroke-opacity="0" fill="#d6242d"/><path d="M719 321.68l1.82-1.8 10.76 10.76-1.8 1.8L719 321.7z" stroke="#fff" stroke-opacity="0" stroke-width=".71" fill="#d6242d"/><path d="M719.02 330.64l10.76-10.77 1.8 1.8-10.75 10.78-1.8-1.8z" stroke="#fff" stroke-opacity="0" stroke-width=".71" fill="#d6242d"/><path d="M723.5 298.1c-.34 0-.65-.12-.9-.36l-4.8-4.8 1.82-1.8 3.83 3.83 8.66-8.66 1.8 1.8-9.57 9.58c-.2.26-.48.4-.82.43zM723.5 313.68c-.34 0-.65-.13-.9-.38l-4.8-4.8 1.82-1.8 3.83 3.84 8.66-8.67 1.8 1.8-9.57 9.57c-.2.26-.48.4-.82.44z" stroke="#fff" stroke-opacity="0" fill="#d6242d"/><use xlink:href="#l" transform="matrix(1,0,0,1,682.6675702231655,349) translate(10.395061728395063 14.222222222222221)"/><use xlink:href="#m" transform="matrix(1,0,0,1,682.6675702231655,349) translate(51.28395061728395 14.222222222222221)"/><path d="M951.67 296.75h-172.5" stroke="#5e5e5e" stroke-width="2" fill="none"/><path d="M952.67 297.75h-1.03v-2h1.03" fill="#5e5e5e"/><path d="M763.9 296.75l14.27-4.64v9.28z" stroke="#5e5e5e" stroke-width="2" fill="#fff"/><path d="M624.44 303H471.17" stroke="#5e5e5e" stroke-width="2" fill="none"/><path d="M625.72 302.27l-.6 1.54-.04.2h-.67v-2h1.4m1.1 2h-1.74l.56-1.73.1-.27h1.78" fill="#5e5e5e"/><path d="M455.9 303l14.27-4.64v9.28z" stroke="#5e5e5e" stroke-width="2" fill="#fff"/><g><path d="M697.74 421.9l278.6-28.05 11.25 111.84L709 533.74z" fill="#fff" fill-opacity="0"/></g><g><use xlink:href="#n" transform="matrix(0.994965620096106,-0.1002168390380141,0.1002168390380141,0.994965620096106,703.216109351445,426.3870335212113) translate(61.788085937500014 21.683593749999993)"/><use xlink:href="#o" transform="matrix(0.994965620096106,-0.1002168390380141,0.1002168390380141,0.994965620096106,703.216109351445,426.3870335212113) translate(110.59602864583334 21.683593749999993)"/><use xlink:href="#p" transform="matrix(0.994965620096106,-0.1002168390380141,0.1002168390380141,0.994965620096106,703.216109351445,426.3870335212113) translate(21.114800347222214 48.7947048611111)"/><use xlink:href="#q" transform="matrix(0.994965620096106,-0.1002168390380141,0.1002168390380141,0.994965620096106,703.216109351445,426.3870335212113) translate(45.518771701388886 79.1050347222222)"/></g><path d="M352.95 160h111.37v20H352.95z" fill="#fff" fill-opacity="0"/><g><use xlink:href="#r" transform="matrix(1,0,0,1,357.9527106694965,165) translate(-5.619753086419706 16.355555555555547)"/><use xlink:href="#s" transform="matrix(1,0,0,1,357.9527106694965,165) translate(20.41851851851854 40.88888888888887)"/></g><defs><path fill="#232f3e" d="M81-9v9H4v-9l26-5 81-224h33l83 224 30 5v9h-99v-9l31-5-23-68H73L49-14zm38-203L78-98h82" id="t"/><path fill="#232f3e" d="M319-222L242 5h-10l-61-162L108 5h-9L21-222l-21-4v-10h90v10l-34 4 56 166 63-163h8l61 163 54-166-37-4v-10h78v10" id="u"/><path fill="#232f3e" d="M178-68c0 79-95 82-154 59v-54h12c1 35 22 52 60 52 50 0 69-58 33-82-39-24-105-21-105-85 0-67 86-66 142-53v49h-12l-6-29c-31-27-121-7-89 42 28 43 119 24 119 101" id="v"/><g id="a"><use transform="matrix(0.043827160493827164,0,0,0.043827160493827164,0,0)" xlink:href="#t"/><use transform="matrix(0.043827160493827164,0,0,0.043827160493827164,10.080246913580247,0)" xlink:href="#u"/><use transform="matrix(0.043827160493827164,0,0,0.043827160493827164,24.937654320987654,0)" xlink:href="#v"/></g><path fill="#232f3e" d="M52-115c0 93 80 130 150 87l7-35h11l-1 55c-23 7-52 12-83 12C60 4 19-37 15-115c-5-113 97-141 201-114l1 51h-12l-5-30c-15-9-39-16-62-16-66 0-86 41-86 109" id="w"/><path fill="#232f3e" d="M65-12l28 4v8H7v-8l28-4v-226l-28-4v-8h58v238" id="x"/><path fill="#232f3e" d="M90-170c52 0 76 32 76 87 0 54-24 87-77 87-51 0-75-34-75-87 0-54 24-87 76-87zM89-10c39 0 46-35 46-73 0-39-7-73-46-73-39 1-44 34-44 73s6 72 44 73" id="y"/><path fill="#232f3e" d="M124-13C89 8 26 15 26-45v-108c-8-3-24 2-21-12h50v118c-3 37 42 32 69 25v-131l-25-4v-8h54v153c8 3 24-2 21 12h-48" id="z"/><path fill="#232f3e" d="M13-81c0-71 46-101 114-85l-1-72-28-4v-8h57v238c8 3 24-2 21 12h-47l-2-12C80 23 13-1 13-81zm77-74c-37 1-44 33-45 74 0 38 9 66 45 66 14 0 27-3 36-7v-130c-10-1-24-3-36-3" id="A"/><g id="b"><use transform="matrix(0.043827160493827164,0,0,0.043827160493827164,0,0)" xlink:href="#w"/><use transform="matrix(0.043827160493827164,0,0,0.043827160493827164,10.518518518518519,0)" xlink:href="#x"/><use transform="matrix(0.043827160493827164,0,0,0.043827160493827164,14.901234567901232,0)" xlink:href="#y"/><use transform="matrix(0.043827160493827164,0,0,0.043827160493827164,22.790123456790123,0)" xlink:href="#z"/><use transform="matrix(0.043827160493827164,0,0,0.043827160493827164,30.679012345679016,0)" xlink:href="#A"/></g><path fill="#333" d="M75-13V0H4v-13l17-5 84-220h51l83 220 18 5V0H152v-13l28-5-23-61H67L45-18zm38-189L74-98h76" id="B"/><path fill="#333" d="M334-218L264 5h-22l-58-145L125 5h-21L26-218l-21-5v-13h106v13l-28 5 51 140 55-138h22l55 138 42-140-30-5v-13h76v13" id="C"/><path fill="#333" d="M185-72C185 13 82 14 19-9v-63h16c2 37 21 58 61 58 46 0 69-51 31-71-42-23-106-23-106-90 0-69 87-70 148-56v56h-16l-7-32c-26-25-110-13-82 35 39 34 121 26 121 100" id="D"/><g id="c"><use transform="matrix(0.055555555555555546,0,0,0.055555555555555546,0,0)" xlink:href="#B"/><use transform="matrix(0.055555555555555546,0,0,0.055555555555555546,12.166666666666664,0)" xlink:href="#C"/><use transform="matrix(0.055555555555555546,0,0,0.055555555555555546,32.16666666666666,0)" xlink:href="#D"/></g><path fill="#333" d="M128-223l-36 5v199l103-3 14-49h16l-7 71H6v-13l30-5v-200l-30-5v-13h122v13" id="E"/><path fill="#333" d="M31-163c51-5 127-20 127 40v107l17 4V0h-61l-4-13C82 13 12 12 12-46c0-51 46-52 95-53 9-45-22-69-57-44l-7 20H31v-40zM62-47c0 30 26 34 45 23v-59c-28 0-45 6-45 36" id="F"/><path fill="#333" d="M126-114c3-31-27-37-49-25v123l15 4V0H10v-12l16-4v-133l-16-5v-11h64l2 14c24-16 81-33 96 3 30-24 105-39 105 27v105l17 4V0h-82v-12l14-4v-98c4-33-27-37-51-24 5 35 0 82 2 122l17 4V0h-83v-12l15-4v-98" id="G"/><path fill="#333" d="M72-18c49 15 64-22 62-69-1-34-4-62-34-63-10-1-23 2-28 6v126zm33 22C77 4 48-3 21-8v-226l-16-4v-12h67c-1 31 2 66-2 94 11-8 28-14 47-14 51 0 70 31 69 83-1 55-26 91-81 91" id="H"/><path fill="#333" d="M15-82c-4-69 47-101 113-83l-1-69-17-4v-12h68v234l18 4V0h-63l-4-9C77 23 5-9 15-82zm112-66c-43-16-64 17-61 65 2 33 3 67 32 67 12 0 22-3 29-8v-124" id="I"/><g id="d"><use transform="matrix(0.055555555555555546,0,0,0.055555555555555546,0,0)" xlink:href="#E"/><use transform="matrix(0.055555555555555546,0,0,0.055555555555555546,13.33333333333333,0)" xlink:href="#F"/><use transform="matrix(0.055555555555555546,0,0,0.055555555555555546,23.33333333333333,0)" xlink:href="#G"/><use transform="matrix(0.055555555555555546,0,0,0.055555555555555546,39.944444444444436,0)" xlink:href="#H"/><use transform="matrix(0.055555555555555546,0,0,0.055555555555555546,51.05555555555554,0)" xlink:href="#I"/><use transform="matrix(0.055555555555555546,0,0,0.055555555555555546,62.16666666666666,0)" xlink:href="#F"/></g><path fill="#333" d="M76-116c0 86 71 126 135 84l6-39h16l-1 60C138 21 18 1 18-115c0-117 106-141 210-112l1 57h-16l-5-34c-13-9-32-16-54-16-60 0-78 42-78 104" id="J"/><path fill="#333" d="M90-170c54-1 76 32 76 87 1 56-23 87-77 87-53 0-75-32-75-87s23-86 76-87zM89-14c28-2 26-38 26-69s3-69-26-69c-27 0-24 39-24 69s-3 66 24 69" id="K"/><path fill="#333" d="M127-114c3-31-26-38-50-25v123l15 4V0H10v-12l16-4v-133l-16-5v-11h64l2 14c31-23 102-32 102 30v105l17 4V0h-82v-12l14-4v-98" id="L"/><path fill="#333" d="M107-230c-31-13-29 30-29 65h34v18H78v131l27 4V0H10v-12l18-4v-131H3v-12l25-7c-8-66 31-98 95-84v39h-11" id="M"/><path fill="#333" d="M77-16l18 4V0H8v-12l18-4v-133l-17-5v-11h68v149zM51-196c-16 0-27-10-27-27s10-27 27-27 27 11 27 27c0 17-10 27-27 27" id="N"/><path fill="#333" d="M9 41c2-18 18-26 32-33C29 1 16-9 16-28l29-33c-21-9-31-25-31-51-2-56 61-65 111-53l39-20c13 12-9 24-14 36 35 54-17 114-90 92-17 34 27 28 56 28 36-1 61 12 60 46-2 46-39 62-91 62-38 0-71-6-76-38zm35-3c6 35 97 29 94-9-2-28-50-14-78-17-8 7-15 14-16 26zm20-150c0 22 4 40 23 40 20 0 24-17 24-40 0-24-4-40-24-40-19 0-23 17-23 40" id="O"/><g id="e"><use transform="matrix(0.055555555555555546,0,0,0.055555555555555546,0,0)" xlink:href="#J"/><use transform="matrix(0.055555555555555546,0,0,0.055555555555555546,14.388888888888886,0)" xlink:href="#K"/><use transform="matrix(0.055555555555555546,0,0,0.055555555555555546,24.388888888888886,0)" xlink:href="#L"/><use transform="matrix(0.055555555555555546,0,0,0.055555555555555546,35.49999999999999,0)" xlink:href="#M"/><use transform="matrix(0.055555555555555546,0,0,0.055555555555555546,42.1111111111111,0)" xlink:href="#N"/><use transform="matrix(0.055555555555555546,0,0,0.055555555555555546,47.66666666666666,0)" xlink:href="#O"/></g><path fill="#333" d="M222-170c0 37-18 56-47 65l63 87 25 5V0h-76l-66-100H92v82l30 5V0H8v-13l28-5v-200l-30-5v-13c89 5 214-24 216 66zM92-119c45 2 75-3 75-50s-30-49-75-47v97" id="P"/><path fill="#333" d="M73-51c-3 31 27 38 51 25v-123l-16-5v-11h66v149l17 4V0h-65l-2-14C94 9 22 18 22-44v-105l-17-5v-11h68v114" id="Q"/><path fill="#333" d="M76-16l18 4V0H7v-12l18-4v-218l-17-4v-12h68v234" id="R"/><path fill="#333" d="M12-83c0-55 22-85 75-86 52-1 66 33 63 88H64c-1 37 6 64 44 63 14 0 28-4 39-6 3 28-28 25-55 27-57 4-80-31-80-86zm90-17c2-26 0-63-27-48-10 9-11 28-11 48h38" id="S"/><g id="f"><use transform="matrix(0.055555555555555546,0,0,0.055555555555555546,0,0)" xlink:href="#P"/><use transform="matrix(0.055555555555555546,0,0,0.055555555555555546,14.388888888888886,0)" xlink:href="#Q"/><use transform="matrix(0.055555555555555546,0,0,0.055555555555555546,25.499999999999993,0)" xlink:href="#R"/><use transform="matrix(0.055555555555555546,0,0,0.055555555555555546,31.055555555555543,0)" xlink:href="#S"/></g><path fill="#333" d="M6-13l30-5v-200l-30-5v-13h201v60h-16l-6-38-93-2v86h61l6-26h16v73h-16l-6-27H92v91l104-3 10-44h16l-4 66H6v-13" id="T"/><path fill="#333" d="M109-18c15 0 31-2 42-6v14c-11 9-31 13-51 13-59 0-86-28-88-86-3-75 66-101 135-80v48h-13c-3-20-7-40-34-37-51 7-55 138 9 134" id="U"/><path fill="#333" d="M132-132c-21 0-37 9-50 16v100l26 4V0H10v-12l21-4v-133l-21-5v-11h69l2 34c17-18 35-41 71-40v61c-17 3-14-14-20-22" id="V"/><path fill="#333" d="M81 5L15-149c-7-2-13-5-11-16h84v11l-20 5 39 91 35-91-19-5v-11h53c2 11-4 13-11 15C134-81 111-5 75 58 65 77 34 83 8 74V32h11c0 24 29 35 43 12 7-11 13-25 19-39" id="W"/><path fill="#333" d="M186-86c2 69-46 103-114 85l1 62 25 4v12H5V65l18-4v-210l-18-5v-11h67v8c12-8 26-13 46-13 49 2 67 30 68 84zm-83 71c28 0 31-33 31-69 0-34-2-66-30-66-12 0-23 3-31 7v124c9 2 20 4 30 4" id="X"/><path fill="#333" d="M78-41c-2 24 21 26 40 20C122 3 98 2 77 4 5 10 32-84 27-147H6v-11l25-7 21-38h26v38h35v18H78v106" id="Y"/><g id="g"><use transform="matrix(0.04320987654320986,0,0,0.04320987654320986,0,0)" xlink:href="#T"/><use transform="matrix(0.04320987654320986,0,0,0.04320987654320986,10.370370370370367,0)" xlink:href="#L"/><use transform="matrix(0.04320987654320986,0,0,0.04320987654320986,19.01234567901234,0)" xlink:href="#U"/><use transform="matrix(0.04320987654320986,0,0,0.04320987654320986,25.882716049382708,0)" xlink:href="#V"/><use transform="matrix(0.04320987654320986,0,0,0.04320987654320986,32.753086419753075,0)" xlink:href="#W"/><use transform="matrix(0.04320987654320986,0,0,0.04320987654320986,40.530864197530846,0)" xlink:href="#X"/><use transform="matrix(0.04320987654320986,0,0,0.04320987654320986,49.17283950617282,0)" xlink:href="#Y"/><use transform="matrix(0.04320987654320986,0,0,0.04320987654320986,54.314814814814795,0)" xlink:href="#S"/><use transform="matrix(0.04320987654320986,0,0,0.04320987654320986,61.18518518518516,0)" xlink:href="#I"/></g><path fill="#333" d="M92-134c39 3 62-4 62-44 0-37-25-40-62-38v82zm0 115c49 5 80-2 80-50 0-44-34-49-80-46v96zm138-50C230 26 101-4 6 0v-13l30-5v-200l-30-5v-13c79 7 206-26 206 54 0 33-22 49-49 56 39 3 67 18 67 57" id="Z"/><path fill="#333" d="M77-79l64-71-17-4v-11h63v11c-32 3-40 30-59 46l57 92 15 4V0h-80c-2-11 3-15 10-16L97-74 77-60v44l16 4V0H10v-12l16-4v-218l-17-4v-12h68v171" id="aa"/><g id="h"><use transform="matrix(0.04320987654320986,0,0,0.04320987654320986,0,0)" xlink:href="#Z"/><use transform="matrix(0.04320987654320986,0,0,0.04320987654320986,10.370370370370367,0)" xlink:href="#Q"/><use transform="matrix(0.04320987654320986,0,0,0.04320987654320986,19.01234567901234,0)" xlink:href="#U"/><use transform="matrix(0.04320987654320986,0,0,0.04320987654320986,25.882716049382708,0)" xlink:href="#aa"/><use transform="matrix(0.04320987654320986,0,0,0.04320987654320986,34.52469135802468,0)" xlink:href="#S"/><use transform="matrix(0.04320987654320986,0,0,0.04320987654320986,41.39506172839505,0)" xlink:href="#Y"/></g><g id="i"><use transform="matrix(0.055555555555555546,0,0,0.055555555555555546,0,0)" xlink:href="#P"/><use transform="matrix(0.055555555555555546,0,0,0.055555555555555546,14.388888888888886,0)" xlink:href="#K"/><use transform="matrix(0.055555555555555546,0,0,0.055555555555555546,24.388888888888886,0)" xlink:href="#R"/><use transform="matrix(0.055555555555555546,0,0,0.055555555555555546,29.94444444444444,0)" xlink:href="#S"/></g><g id="j"><use transform="matrix(0.055555555555555546,0,0,0.055555555555555546,0,0)" xlink:href="#S"/><use transform="matrix(0.055555555555555546,0,0,0.055555555555555546,8.833333333333332,0)" xlink:href="#G"/><use transform="matrix(0.055555555555555546,0,0,0.055555555555555546,25.44444444444444,0)" xlink:href="#F"/><use transform="matrix(0.055555555555555546,0,0,0.055555555555555546,35.444444444444436,0)" xlink:href="#N"/><use transform="matrix(0.055555555555555546,0,0,0.055555555555555546,40.99999999999999,0)" xlink:href="#R"/></g><g id="k"><use transform="matrix(0.055555555555555546,0,0,0.055555555555555546,0,0)" xlink:href="#L"/><use transform="matrix(0.055555555555555546,0,0,0.055555555555555546,11.111111111111109,0)" xlink:href="#K"/><use transform="matrix(0.055555555555555546,0,0,0.055555555555555546,21.111111111111107,0)" xlink:href="#Y"/><use transform="matrix(0.055555555555555546,0,0,0.055555555555555546,27.722222222222218,0)" xlink:href="#N"/><use transform="matrix(0.055555555555555546,0,0,0.055555555555555546,33.27777777777777,0)" xlink:href="#M"/><use transform="matrix(0.055555555555555546,0,0,0.055555555555555546,39.88888888888888,0)" xlink:href="#N"/><use transform="matrix(0.055555555555555546,0,0,0.055555555555555546,45.444444444444436,0)" xlink:href="#U"/><use transform="matrix(0.055555555555555546,0,0,0.055555555555555546,54.27777777777777,0)" xlink:href="#F"/><use transform="matrix(0.055555555555555546,0,0,0.055555555555555546,64.27777777777777,0)" xlink:href="#Y"/><use transform="matrix(0.055555555555555546,0,0,0.055555555555555546,70.88888888888889,0)" xlink:href="#N"/><use transform="matrix(0.055555555555555546,0,0,0.055555555555555546,76.44444444444444,0)" xlink:href="#K"/><use transform="matrix(0.055555555555555546,0,0,0.055555555555555546,86.44444444444444,0)" xlink:href="#L"/></g><path fill="#333" d="M98-18l30 5V0H12v-13l30-5v-200l-30-5v-13h116v13l-30 5v200" id="ab"/><path fill="#333" d="M155 0h-10L58-199v181l32 5V0H6v-13l30-5v-200l-30-5v-13h93l67 155 69-155h94v13l-30 5v200l30 5V0H212v-13l32-5v-181" id="ac"/><g id="l"><use transform="matrix(0.049382716049382706,0,0,0.049382716049382706,0,0)" xlink:href="#ab"/><use transform="matrix(0.049382716049382706,0,0,0.049382716049382706,6.913580246913579,0)" xlink:href="#B"/><use transform="matrix(0.049382716049382706,0,0,0.049382716049382706,19.703703703703702,0)" xlink:href="#ac"/></g><path fill="#333" d="M92-112c43 4 61-13 61-54s-18-54-61-50v104zm118-54c0 63-50 78-118 74v74l39 5V0H8v-13l28-5v-200l-30-5v-13c88 3 205-20 204 70" id="ad"/><g id="m"><use transform="matrix(0.049382716049382706,0,0,0.049382716049382706,0,0)" xlink:href="#ad"/><use transform="matrix(0.049382716049382706,0,0,0.049382716049382706,10.814814814814813,0)" xlink:href="#K"/><use transform="matrix(0.049382716049382706,0,0,0.049382716049382706,19.703703703703702,0)" xlink:href="#R"/><use transform="matrix(0.049382716049382706,0,0,0.049382716049382706,24.641975308641975,0)" xlink:href="#N"/><use transform="matrix(0.049382716049382706,0,0,0.049382716049382706,29.580246913580247,0)" xlink:href="#U"/><use transform="matrix(0.049382716049382706,0,0,0.049382716049382706,37.432098765432094,0)" xlink:href="#W"/></g><path fill="#333" d="M609-1161c-125 0-218 36-218 153 0 149 166 161 290 196 235 67 484 129 484 421 0 300-239 408-554 411C302 23 93-114 38-367l285-37c32 128 131 205 296 203 143-2 259-31 259-173 0-164-197-172-333-212-218-64-441-131-441-405 0-276 231-379 511-379 299 0 463 114 513 363l-286 29c-28-115-96-183-233-183" id="ae"/><path fill="#333" d="M788-691c191 26 337 112 337 315 0 286-214 399-510 399-306 0-483-128-522-391l286-25c18 124 91 190 235 188 132-2 223-58 223-188 0-176-191-182-378-179v-227c176 5 345-9 345-176 0-115-82-171-200-171s-198 55-206 169l-281-20c34-252 213-373 492-373 224 0 381 74 451 224 20 43 29 89 29 136 0 195-130 279-301 315v4" id="af"/><g id="n"><use transform="matrix(0.013237847222222219,0,0,0.013237847222222219,0,0)" xlink:href="#ae"/><use transform="matrix(0.013237847222222219,0,0,0.013237847222222219,16.269314236111107,0)" xlink:href="#af"/></g><path fill="#333" d="M836-709c204 20 350 118 350 324C1186-112 992 0 719 0H137v-1349h525c258 3 443 87 443 339 0 176-107 269-269 301zM643-811c107 0 165-53 165-159 0-113-61-160-167-160H432v319h211zm46 592c128-1 201-59 200-191-1-128-80-183-207-183H432v374h257" id="ag"/><path fill="#333" d="M1100-543c2 361-147 563-501 563-342 0-470-199-470-548v-821h295v818c3 172 13 322 183 320 173-2 198-150 198-330v-808h295v806" id="ah"/><path fill="#333" d="M872-915c-35-112-84-223-220-223-91 0-156 41-204 116-89 137-87 550 2 688 51 79 116 122 209 122 150 0 197-126 240-244l273 52C1094-168 961 20 656 20 239 20 80-262 80-681c0-418 154-689 568-689 289 0 425 167 496 389" id="ai"/><path fill="#333" d="M881 0L558-557 431-415V0H136v-1349h295v599l436-599h343L750-770 1229 0H881" id="aj"/><path fill="#333" d="M137 0v-1349h968v228H432v324h612v228H432v341h714V0H137" id="ak"/><path fill="#333" d="M762-1121V0H467v-1121H61v-228h1107v228H762" id="al"/><g id="o"><use transform="matrix(0.013237847222222219,0,0,0.013237847222222219,0,0)" xlink:href="#ag"/><use transform="matrix(0.013237847222222219,0,0,0.013237847222222219,16.269314236111107,0)" xlink:href="#ah"/><use transform="matrix(0.013237847222222219,0,0,0.013237847222222219,32.538628472222214,0)" xlink:href="#ai"/><use transform="matrix(0.013237847222222219,0,0,0.013237847222222219,48.80794270833332,0)" xlink:href="#aj"/><use transform="matrix(0.013237847222222219,0,0,0.013237847222222219,65.07725694444443,0)" xlink:href="#ak"/><use transform="matrix(0.013237847222222219,0,0,0.013237847222222219,81.34657118055554,0)" xlink:href="#al"/></g><path fill="#333" d="M865-312c-44-312-23-686-28-1037h257V0H748L364-1010c44 304 24 668 28 1010H135v-1349h337" id="am"/><path fill="#333" d="M615-1370c385 0 542 273 542 691 0 230-47 404-140 522S790 20 615 20C231 20 72-262 72-679c0-419 158-691 543-691zM797-330c77-133 78-564 0-695-44-73-101-113-182-113s-139 40-183 114c-79 133-78 560 0 694 45 77 102 118 183 118s138-41 182-118" id="an"/><path fill="#333" d="M324-409v-244h580v244H324" id="ao"/><path fill="#333" d="M305-1169c27 366 9 780 14 1169H99v-1349h347c49 189 108 371 150 564 12 56 15 107 23 166 33-270 117-487 176-730h335V0H908c5-390-13-801 16-1169-52 285-130 541-199 809H507c-70-267-148-525-202-809" id="ap"/><path fill="#333" d="M616-1349c316 3 526 118 526 426 0 301-201 442-514 447H431V0H136v-1349h480zm-25 646c164 1 254-62 254-215 0-157-99-200-262-202H431v417h160" id="aq"/><path fill="#333" d="M211 0v-1349h295v1121h616V0H211" id="ar"/><path fill="#333" d="M157-1349h916v228H762v893h311V0H157v-228h311v-893H157v-228" id="as"/><path fill="#333" d="M1229 0H935l-92-330H387L295 0H0l443-1349h344zM615-1167c-46 213-110 412-166 615h332c-56-204-119-401-166-615" id="at"/><g id="p"><use transform="matrix(0.013237847222222219,0,0,0.013237847222222219,0,0)" xlink:href="#am"/><use transform="matrix(0.013237847222222219,0,0,0.013237847222222219,16.269314236111107,0)" xlink:href="#an"/><use transform="matrix(0.013237847222222219,0,0,0.013237847222222219,32.538628472222214,0)" xlink:href="#am"/><use transform="matrix(0.013237847222222219,0,0,0.013237847222222219,48.80794270833332,0)" xlink:href="#ao"/><use transform="matrix(0.013237847222222219,0,0,0.013237847222222219,65.07725694444443,0)" xlink:href="#ai"/><use transform="matrix(0.013237847222222219,0,0,0.013237847222222219,81.34657118055554,0)" xlink:href="#an"/><use transform="matrix(0.013237847222222219,0,0,0.013237847222222219,97.61588541666666,0)" xlink:href="#ap"/><use transform="matrix(0.013237847222222219,0,0,0.013237847222222219,113.88519965277777,0)" xlink:href="#aq"/><use transform="matrix(0.013237847222222219,0,0,0.013237847222222219,130.15451388888889,0)" xlink:href="#ar"/><use transform="matrix(0.013237847222222219,0,0,0.013237847222222219,146.423828125,0)" xlink:href="#as"/><use transform="matrix(0.013237847222222219,0,0,0.013237847222222219,162.69314236111111,0)" xlink:href="#at"/><use transform="matrix(0.013237847222222219,0,0,0.013237847222222219,178.96245659722223,0)" xlink:href="#am"/><use transform="matrix(0.013237847222222219,0,0,0.013237847222222219,195.23177083333334,0)" xlink:href="#ai"/><use transform="matrix(0.013237847222222219,0,0,0.013237847222222219,211.50108506944446,0)" xlink:href="#ak"/></g><path fill="#333" d="M1157-949c0 209-118 316-279 368L1227 0H895L605-515H432V0H137v-1349h494c317-2 526 111 526 400zM608-744c158 1 248-51 252-193 5-207-223-184-428-183v376h176" id="au"/><path fill="#333" d="M496-1349c439 0 656 222 653 664C1146-265 969 0 556 0H135v-1349h361zm36 1121c245-7 319-187 320-457 1-273-91-439-361-436h-61v893h102" id="av"/><g id="q"><use transform="matrix(0.013237847222222219,0,0,0.013237847222222219,0,0)" xlink:href="#au"/><use transform="matrix(0.013237847222222219,0,0,0.013237847222222219,16.269314236111107,0)" xlink:href="#ak"/><use transform="matrix(0.013237847222222219,0,0,0.013237847222222219,32.538628472222214,0)" xlink:href="#ap"/><use transform="matrix(0.013237847222222219,0,0,0.013237847222222219,48.80794270833332,0)" xlink:href="#ak"/><use transform="matrix(0.013237847222222219,0,0,0.013237847222222219,65.07725694444443,0)" xlink:href="#av"/><use transform="matrix(0.013237847222222219,0,0,0.013237847222222219,81.34657118055554,0)" xlink:href="#as"/><use transform="matrix(0.013237847222222219,0,0,0.013237847222222219,97.61588541666666,0)" xlink:href="#at"/><use transform="matrix(0.013237847222222219,0,0,0.013237847222222219,113.88519965277777,0)" xlink:href="#al"/><use transform="matrix(0.013237847222222219,0,0,0.013237847222222219,130.15451388888889,0)" xlink:href="#as"/><use transform="matrix(0.013237847222222219,0,0,0.013237847222222219,146.423828125,0)" xlink:href="#an"/><use transform="matrix(0.013237847222222219,0,0,0.013237847222222219,162.69314236111111,0)" xlink:href="#am"/></g><path fill="#333" d="M91-218c7 77-29 197 56 197 84 0 47-121 55-197l-31-5v-13h80v13l-27 5v137c-1 56-32 84-91 84-59-1-96-26-97-85v-136l-27-5v-13h112v13" id="aw"/><g id="r"><use transform="matrix(0.05679012345679009,0,0,0.05679012345679009,0,0)" xlink:href="#aw"/><use transform="matrix(0.05679012345679009,0,0,0.05679012345679009,14.708641975308634,0)" xlink:href="#L"/><use transform="matrix(0.05679012345679009,0,0,0.05679012345679009,26.066666666666652,0)" xlink:href="#S"/><use transform="matrix(0.05679012345679009,0,0,0.05679012345679009,35.09629629629627,0)" xlink:href="#L"/><use transform="matrix(0.05679012345679009,0,0,0.05679012345679009,46.45432098765429,0)" xlink:href="#U"/><use transform="matrix(0.05679012345679009,0,0,0.05679012345679009,55.48395061728392,0)" xlink:href="#V"/><use transform="matrix(0.05679012345679009,0,0,0.05679012345679009,64.51358024691353,0)" xlink:href="#W"/><use transform="matrix(0.05679012345679009,0,0,0.05679012345679009,74.73580246913575,0)" xlink:href="#X"/><use transform="matrix(0.05679012345679009,0,0,0.05679012345679009,86.09382716049376,0)" xlink:href="#Y"/><use transform="matrix(0.05679012345679009,0,0,0.05679012345679009,92.85185185185178,0)" xlink:href="#S"/><use transform="matrix(0.05679012345679009,0,0,0.05679012345679009,101.8814814814814,0)" xlink:href="#I"/></g><g id="s"><use transform="matrix(0.05679012345679009,0,0,0.05679012345679009,0,0)" xlink:href="#Z"/><use transform="matrix(0.05679012345679009,0,0,0.05679012345679009,13.62962962962962,0)" xlink:href="#Q"/><use transform="matrix(0.05679012345679009,0,0,0.05679012345679009,24.987654320987637,0)" xlink:href="#U"/><use transform="matrix(0.05679012345679009,0,0,0.05679012345679009,34.01728395061726,0)" xlink:href="#aa"/><use transform="matrix(0.05679012345679009,0,0,0.05679012345679009,45.37530864197528,0)" xlink:href="#S"/><use transform="matrix(0.05679012345679009,0,0,0.05679012345679009,54.404938271604905,0)" xlink:href="#Y"/></g></defs></g></svg>